# xmcd
#
# Track frame offsets:
#	150
#	9037
#	28327
#	43592
#	57487
#	74307
#	85627
#	99970
#	115890
#	131247
#	147845
#	159710
#	172752
#	188585
#
# Disc length: 2702 seconds
#
# Revision: 1
# Processed by: cddbd v1.5.2PL0 Copyright (c) Steve Scherf et al.
# Submitted via: EasyCDDAExtractor 10.1.0.1
#
DISCID=b10a8c0e
DTITLE=Slim Dusty - Slim Dusty Live At Wagga Wagga
DYEAR=1972
DGENRE=Country
TTITLE0=Good Old Country Style
TTITLE1=Sweeney
TTITLE2=The Drover's Cook
TTITLE3=Gum Trees By The Roadway
TTITLE4=When The Rain Tumbles Down In Ju
TTITLE5=Somewhere Between
TTITLE6=A Pub With No Beer
TTITLE7=L.A. International Airport
TTITLE8=How Will I Go With Him Mate?
TTITLE9=Ned Kelly Was A Gentleman
TTITLE10=If Only I Had A Home Sweet Home
TTITLE11=Bye And Bye
TTITLE12=He's Just The One
TTITLE13=Old Time Music
EXTD=
EXTT0=
EXTT1=
EXTT2=
EXTT3=
EXTT4=
EXTT5=
EXTT6=
EXTT7=
EXTT8=
EXTT9=
EXTT10=
EXTT11=
EXTT12=
EXTT13=
PLAYORDER=
